<svg width="24" height="24" viewBox="0 0 24 24" fill="none" xmlns="http://www.w3.org/2000/svg">
<path d="M20.6667 0H3.33333C1.49316 0.00227867 0.00227867 1.49316 0 3.33333V20.6667C0.00227867 22.5068 1.49316 23.9977 3.33333 24H20.6667C22.5068 23.9977 23.9977 22.5068 24 20.6667V3.33333C23.9977 1.49316 22.5068 0.00227867 20.6667 0ZM22.6667 20.6667C22.6667 21.7712 21.7712 22.6667 20.6667 22.6667H3.33333C2.22884 22.6667 1.33333 21.7712 1.33333 20.6667V3.33333C1.33333 2.22884 2.22884 1.33333 3.33333 1.33333H20.6667C21.7712 1.33333 22.6667 2.22884 22.6667 3.33333V20.6667Z" fill="#4D4D4D"/>
<path d="M11.9996 5.33398C8.31769 5.33398 5.33301 8.31839 5.33301 12C5.33301 15.6816 8.31769 18.666 11.9996 18.666C15.6816 18.666 18.6663 15.6816 18.6663 12C18.6624 8.32002 15.6799 5.33789 11.9996 5.33398ZM11.9996 17.3328C9.05401 17.3328 6.66633 14.9453 6.66633 12C6.66633 9.05465 9.05401 6.66719 11.9996 6.66719C14.9453 6.66719 17.3329 9.05465 17.3329 12C17.3297 14.9437 14.9436 17.3296 11.9996 17.3328Z" fill="#4D4D4D"/>
<path d="M19.333 2.66602C18.2285 2.66602 17.333 3.56152 17.333 4.66602C17.333 5.77051 18.2285 6.66602 19.333 6.66602C20.4375 6.66602 21.333 5.77051 21.333 4.66602C21.333 3.56152 20.4375 2.66602 19.333 2.66602ZM19.333 5.33268C18.9648 5.33268 18.6663 5.03418 18.6663 4.66602C18.6663 4.29785 18.9648 3.99935 19.333 3.99935C19.7012 3.99935 19.9997 4.29785 19.9997 4.66602C19.9997 5.03418 19.7012 5.33268 19.333 5.33268Z" fill="#4D4D4D"/>
</svg>
