<svg width="24" height="24" viewBox="0 0 24 24" fill="none" xmlns="http://www.w3.org/2000/svg">
<path d="M23.5893 7.33825C23.5342 6.08846 23.3321 5.22924 23.0426 4.48472C22.7439 3.69442 22.2844 2.98687 21.6823 2.39868C21.0941 1.80134 20.3818 1.33718 19.6007 1.04317C18.8518 0.753652 17.997 0.551546 16.7471 0.496443C15.488 0.436672 15.0882 0.422852 11.8946 0.422852C8.70089 0.422852 8.30115 0.436672 7.04662 0.491776C5.79677 0.546879 4.9375 0.749165 4.19312 1.0385C3.4026 1.33718 2.69501 1.79667 2.10679 2.39868C1.50942 2.98687 1.04541 3.69909 0.75121 4.48023C0.461677 5.22924 0.259561 6.0838 0.204454 7.33359C0.144681 8.59271 0.130859 8.99244 0.130859 12.1859C0.130859 15.3794 0.144681 15.7791 0.199787 17.0336C0.254894 18.2834 0.45719 19.1426 0.746723 19.8871C1.04541 20.6774 1.50942 21.385 2.10679 21.9732C2.69501 22.5705 3.40727 23.0347 4.18845 23.3287C4.9375 23.6182 5.7921 23.8203 7.04214 23.8754C8.29648 23.9307 8.6964 23.9443 11.8901 23.9443C15.0837 23.9443 15.4835 23.9307 16.738 23.8754C17.9878 23.8203 18.8471 23.6182 19.5915 23.3287C21.1723 22.7175 22.4222 21.4677 23.0334 19.8871C23.3228 19.1381 23.5251 18.2834 23.5802 17.0336C23.6353 15.7791 23.6491 15.3794 23.6491 12.1859C23.6491 8.99244 23.6444 8.59271 23.5893 7.33825ZM21.471 16.9417C21.4204 18.0904 21.2275 18.7108 21.0666 19.1243C20.6714 20.149 19.8581 20.9623 18.8333 21.3575C18.4197 21.5183 17.7949 21.7113 16.6506 21.7617C15.4099 21.817 15.0378 21.8307 11.8992 21.8307C8.76067 21.8307 8.3839 21.817 7.14768 21.7617C5.99888 21.7113 5.37853 21.5183 4.96497 21.3575C4.45501 21.1691 3.99082 20.8704 3.61405 20.4798C3.22346 20.0984 2.92477 19.6389 2.7363 19.129C2.57547 18.7154 2.3825 18.0904 2.33206 16.9464C2.27678 15.7057 2.26314 15.3335 2.26314 12.1951C2.26314 9.05669 2.27678 8.67994 2.33206 7.44397C2.3825 6.29524 2.57547 5.67492 2.7363 5.26137C2.92477 4.75126 3.22346 4.28728 3.61872 3.91035C3.99997 3.51978 4.45949 3.22111 4.96963 3.03282C5.3832 2.872 6.00822 2.67904 7.15235 2.62843C8.39305 2.57332 8.76533 2.5595 11.9037 2.5595C15.0469 2.5595 15.419 2.57332 16.6552 2.62843C17.804 2.67904 18.4244 2.872 18.838 3.03282C19.3479 3.22111 19.8121 3.51978 20.1889 3.91035C20.5795 4.29176 20.8782 4.75126 21.0666 5.26137C21.2275 5.67492 21.4204 6.29972 21.471 7.44397C21.5261 8.68461 21.54 9.05669 21.54 12.1951C21.54 15.3335 21.5261 15.7011 21.471 16.9417Z" fill="white"/>
<path d="M11.8942 6.14453C8.55824 6.14453 5.85156 8.85103 5.85156 12.1872C5.85156 15.5234 8.55824 18.2299 11.8942 18.2299C15.2304 18.2299 17.9369 15.5234 17.9369 12.1872C17.9369 8.85103 15.2304 6.14453 11.8942 6.14453ZM11.8942 16.1069C9.73001 16.1069 7.97451 14.3516 7.97451 12.1872C7.97451 10.0228 9.73001 8.26747 11.8942 8.26747C14.0587 8.26747 15.814 10.0228 15.814 12.1872C15.814 14.3516 14.0587 16.1069 11.8942 16.1069Z" fill="white"/>
<path d="M19.5862 5.90527C19.5862 6.68401 18.9546 7.31543 18.1753 7.31543C17.3963 7.31543 16.7646 6.68401 16.7646 5.90527C16.7646 5.12636 17.3963 4.49512 18.1753 4.49512C18.9546 4.49512 19.5862 5.12636 19.5862 5.90527Z" fill="white"/>
</svg>
