<svg width="26" height="26" viewBox="0 0 26 26" fill="none" xmlns="http://www.w3.org/2000/svg">
<path d="M24.3719 19.5152L19.5139 16.2754C18.8974 15.8676 18.071 16.0018 17.6152 16.5838L16.2001 18.4033C16.0182 18.643 15.6876 18.7126 15.4246 18.5665L15.1554 18.4181C14.263 17.9317 13.1528 17.3262 10.9157 15.0883C8.67869 12.8505 8.07194 11.7394 7.58556 10.8487L7.43796 10.5795C7.2898 10.3164 7.35804 9.98445 7.59793 9.80114L9.41616 8.38646C9.99793 7.93064 10.1323 7.10449 9.72495 6.4878L6.4852 1.62977C6.06772 1.00178 5.23013 0.813267 4.58382 1.20178L2.55237 2.42208C1.91407 2.79733 1.44578 3.40507 1.24568 4.11793C0.514163 6.78332 1.06448 11.3834 7.84077 18.1605C13.2312 23.5504 17.2441 24.9999 20.0023 24.9999C20.637 25.0027 21.2693 24.9201 21.8821 24.7544C22.5951 24.5545 23.203 24.0862 23.578 23.4477L24.7995 21.4175C25.1886 20.771 25.0002 19.9329 24.3719 19.5152ZM24.1103 21.0071L22.8916 23.0385C22.6223 23.4993 22.1852 23.8382 21.6717 23.984C19.2111 24.6596 14.9122 24.1 8.4067 17.5945C1.90118 11.089 1.34168 6.79054 2.01723 4.32956C2.16329 3.81547 2.50254 3.37774 2.96394 3.10804L4.9954 1.88934C5.27583 1.7206 5.63936 1.80239 5.82052 2.0749L7.5804 4.71709L9.0575 6.93251C9.2344 7.20001 9.17628 7.55853 8.92392 7.75647L7.10526 9.17114C6.55181 9.59434 6.39376 10.3601 6.73451 10.9678L6.87892 11.2302C7.3901 12.1677 8.02563 13.334 10.3459 15.6539C12.6661 17.9737 13.832 18.6093 14.7691 19.1204L15.0319 19.2652C15.6396 19.6059 16.4053 19.4479 16.8285 18.8944L18.2432 17.0758C18.4412 16.8235 18.7996 16.7655 19.0672 16.9422L23.9248 20.1819C24.1975 20.3629 24.2793 20.7267 24.1103 21.0071Z" fill="#4D4D4D" stroke="#4D4D4D" stroke-width="0.8"/>
<path d="M14.6001 5.00108C18.3537 5.00525 21.3954 8.04706 21.3996 11.8006C21.3996 12.0215 21.5787 12.2005 21.7996 12.2005C22.0205 12.2005 22.1995 12.0215 22.1995 11.8006C22.1949 7.60544 18.7953 4.20577 14.6001 4.20117C14.3792 4.20117 14.2002 4.38022 14.2002 4.60113C14.2002 4.82203 14.3792 5.00108 14.6001 5.00108Z" fill="#4D4D4D" stroke="#4D4D4D" stroke-width="0.8"/>
<path d="M14.6001 7.40147C17.0288 7.40433 18.997 9.37246 18.9998 11.8011C18.9998 12.0221 19.1789 12.2011 19.3998 12.2011C19.6207 12.2011 19.7997 12.0221 19.7997 11.8011C19.7964 8.93084 17.4704 6.60484 14.6001 6.60156C14.3792 6.60156 14.2002 6.78061 14.2002 7.00152C14.2002 7.22242 14.3792 7.40147 14.6001 7.40147Z" fill="#4D4D4D" stroke="#4D4D4D" stroke-width="0.8"/>
<path d="M14.6001 9.80186C15.7041 9.80317 16.5987 10.6978 16.6 11.8017C16.6 12.0226 16.7791 12.2017 17 12.2017C17.2208 12.2017 17.3999 12.0226 17.3999 11.8017C17.3981 10.2562 16.1457 9.00369 14.6001 9.00195C14.3792 9.00195 14.2002 9.181 14.2002 9.40191C14.2002 9.62281 14.3792 9.80186 14.6001 9.80186Z" fill="#4D4D4D" stroke="#4D4D4D" stroke-width="0.8"/>
</svg>
