<svg width="126" height="95" viewBox="0 0 126 95" fill="none" xmlns="http://www.w3.org/2000/svg">
<mask id="path-1-inside-1" fill="white">
<path fill-rule="evenodd" clip-rule="evenodd" d="M19.295 3.09515H105.959C114.934 3.09515 122.209 10.3703 122.209 19.3447V75.0574C122.209 84.0317 114.934 91.3069 105.959 91.3069H19.295C12.3502 91.3069 6.42292 86.9502 4.09722 80.8208C3.84825 80.1646 3.23728 79.7001 2.5355 79.7001V79.7001C1.50578 79.7001 0.747932 80.6689 1.09814 81.6372C3.79056 89.0818 10.9215 94.402 19.295 94.402H105.959C116.643 94.402 125.304 85.7411 125.304 75.0574V19.3447C125.304 8.66091 116.643 0 105.959 0H19.295C10.6099 0 3.26158 5.72355 0.81618 13.6045C0.520329 14.558 1.27076 15.4758 2.26907 15.4758V15.4758C2.99685 15.4758 3.62264 14.9752 3.84913 14.2836C5.97641 7.78733 12.0878 3.09515 19.295 3.09515Z"/>
</mask>
<path d="M0.81618 13.6045L-2.13993 12.6873L0.81618 13.6045ZM1.09814 81.6372L4.00878 80.5845L1.09814 81.6372ZM4.09722 80.8208L6.99105 79.7228L4.09722 80.8208ZM105.959 0H19.295V6.1903H105.959V0ZM125.304 19.3447C125.304 8.66091 116.643 0 105.959 0V6.1903C113.224 6.1903 119.114 12.0797 119.114 19.3447H125.304ZM125.304 75.0574V19.3447H119.114V75.0574H125.304ZM105.959 94.402C116.643 94.402 125.304 85.7411 125.304 75.0574H119.114C119.114 82.3223 113.224 88.2117 105.959 88.2117V94.402ZM19.295 94.402H105.959V88.2117H19.295V94.402ZM1.20338 81.9188C3.97018 89.2107 11.0225 94.402 19.295 94.402V88.2117C13.6779 88.2117 8.87566 84.6896 6.99105 79.7228L1.20338 81.9188ZM-1.8125 82.6899C1.3091 91.3211 9.57686 97.4972 19.295 97.4972V91.3069C12.2661 91.3069 6.27202 86.8424 4.00878 80.5845L-1.8125 82.6899ZM19.295 97.4972H105.959V91.3069H19.295V97.4972ZM105.959 97.4972C118.352 97.4972 128.399 87.4505 128.399 75.0574H122.209C122.209 84.0317 114.934 91.3069 105.959 91.3069V97.4972ZM128.399 75.0574V19.3447H122.209V75.0574H128.399ZM128.399 19.3447C128.399 6.9515 118.352 -3.09515 105.959 -3.09515V3.09515C114.934 3.09515 122.209 10.3703 122.209 19.3447H128.399ZM105.959 -3.09515H19.295V3.09515H105.959V-3.09515ZM19.295 -3.09515C9.21562 -3.09515 0.695911 3.54799 -2.13993 12.6873L3.77229 14.5218C5.82725 7.8991 12.0042 3.09515 19.295 3.09515V-3.09515ZM19.295 0C10.7102 0 3.43908 5.59001 0.907676 13.3203L6.79058 15.2468C8.51374 9.98465 13.4653 6.1903 19.295 6.1903V0ZM2.26907 18.5709C4.47209 18.5709 6.19189 17.0751 6.79058 15.2468L0.907676 13.3203C1.0534 12.8753 1.52161 12.3806 2.26907 12.3806V18.5709ZM-2.13993 12.6873C-3.12233 15.8534 -0.577769 18.5709 2.26907 18.5709V12.3806C3.11929 12.3806 4.16299 13.2627 3.77229 14.5218L-2.13993 12.6873ZM2.5355 76.605C-0.384589 76.605 -2.97715 79.4696 -1.8125 82.6899L4.00878 80.5845C4.21409 81.1522 4.08155 81.7575 3.76897 82.1713C3.47132 82.5653 3.01227 82.7953 2.5355 82.7953V76.605ZM6.99105 79.7228C6.33348 77.9897 4.65208 76.605 2.5355 76.605V82.7953C1.82248 82.7953 1.36303 82.3395 1.20338 81.9188L6.99105 79.7228Z" fill="#E5E5E5" mask="url(#path-1-inside-1)"/>
</svg>
